<?xml version="1.0" standalone="no"?>
<!DOCTYPE svg PUBLIC "-//W3C//DTD SVG 20010904//EN"
 "http://www.w3.org/TR/2001/REC-SVG-20010904/DTD/svg10.dtd">
<svg version="1.0" xmlns="http://www.w3.org/2000/svg"
 width="1200.000000pt" height="1200.000000pt" viewBox="0 0 1200.000000 1200.000000"
 preserveAspectRatio="xMidYMid meet">
<metadata>
Created by potrace 1.11, written by Peter Selinger 2001-2013
</metadata>
<g transform="translate(0.000000,1200.000000) scale(0.100000,-0.100000)"
fill="#000000" stroke="none">
<path d="M4314 10785 c-32 -22 -48 -69 -36 -102 5 -15 84 -140 175 -277 l166
-250 -117 -64 c-481 -263 -836 -616 -1056 -1051 -135 -268 -201 -515 -213
-798 l-6 -143 2772 0 2771 0 0 75 c0 106 -17 251 -45 380 -137 638 -591 1199
-1250 1549 -49 27 -91 49 -93 51 -2 2 74 118 167 259 146 219 171 262 171 294
-1 41 -13 63 -47 80 -33 18 -69 14 -98 -10 -14 -13 -104 -140 -199 -283 -95
-143 -177 -259 -182 -258 -5 2 -81 27 -169 57 -573 194 -1210 218 -1813 70
-115 -28 -313 -91 -402 -127 -11 -5 -62 63 -195 264 -98 149 -188 277 -199
285 -26 18 -76 18 -102 -1z m691 -1374 c95 -43 158 -143 158 -251 0 -112 -54
-199 -151 -247 -133 -65 -301 -12 -367 117 -63 122 -22 279 94 358 79 54 177
63 266 23z m2224 -6 c176 -89 205 -317 58 -452 -164 -150 -431 -44 -454 181
-22 212 206 368 396 271z"/>
<path d="M2265 7764 c-179 -28 -337 -137 -417 -290 -71 -135 -68 -60 -68
-1456 0 -874 3 -1273 11 -1310 41 -196 209 -372 406 -423 74 -19 203 -19 278
0 139 37 291 158 353 283 65 133 63 73 60 1482 l-3 1275 -23 60 c-64 172 -200
306 -358 355 -65 20 -186 32 -239 24z"/>
<path d="M9573 7760 c-218 -39 -392 -200 -448 -416 -13 -50 -15 -229 -15
-1327 0 -1408 -4 -1324 67 -1459 66 -127 205 -235 349 -273 75 -19 203 -19
279 0 194 51 358 224 401 424 11 55 14 280 14 1306 0 1362 2 1316 -61 1443
-36 74 -129 177 -199 222 -105 67 -267 101 -387 80z"/>
<path d="M3230 5657 c0 -2059 0 -2085 20 -2163 74 -287 286 -498 572 -570 45
-11 137 -17 321 -21 l257 -6 0 -609 c0 -672 0 -672 63 -793 43 -83 154 -191
239 -233 73 -36 177 -62 248 -62 132 0 275 58 375 151 77 72 118 135 153 231
l27 73 3 623 3 622 489 0 489 0 4 -627 c3 -555 5 -634 20 -676 73 -212 246
-359 456 -389 280 -39 544 140 615 418 14 53 16 149 16 668 l0 606 198 1 c320
1 400 14 540 84 161 81 276 196 351 349 83 169 75 -57 78 2304 l3 2102 -2770
0 -2770 0 0 -2083z"/>
</g>
</svg>
