<?xml version="1.0" standalone="no"?>
<!DOCTYPE svg PUBLIC "-//W3C//DTD SVG 20010904//EN"
 "http://www.w3.org/TR/2001/REC-SVG-20010904/DTD/svg10.dtd">
<svg version="1.0" xmlns="http://www.w3.org/2000/svg"
 width="1200.000000pt" height="1200.000000pt" viewBox="0 0 1200.000000 1200.000000"
 preserveAspectRatio="xMidYMid meet">
<metadata>
Created by potrace 1.11, written by Peter Selinger 2001-2013
</metadata>
<g transform="translate(0.000000,1200.000000) scale(0.100000,-0.100000)"
fill="#000000" stroke="none">
<path d="M7716 10774 c-146 -31 -228 -56 -372 -115 -131 -54 -336 -162 -442
-233 -368 -247 -692 -673 -831 -1092 -69 -206 -84 -300 -85 -534 l-1 -205 55
-8 c79 -11 311 9 422 37 200 51 406 149 574 273 117 87 353 323 442 443 204
275 349 584 407 875 31 154 48 363 39 488 l-7 97 -46 -1 c-25 -1 -95 -12 -155
-25z"/>
<path d="M7601 8479 c-197 -21 -477 -91 -721 -181 -467 -172 -743 -258 -826
-258 -76 0 -250 48 -495 136 -549 196 -615 217 -809 256 -93 18 -148 23 -290
23 -336 0 -620 -67 -935 -219 -263 -127 -432 -245 -634 -440 -203 -198 -352
-403 -490 -676 -162 -321 -248 -592 -300 -955 -28 -191 -36 -322 -36 -575 0
-636 100 -1167 351 -1873 228 -638 526 -1164 996 -1757 318 -401 661 -667 938
-730 30 -7 68 -16 84 -21 39 -12 239 -11 285 0 20 6 80 20 134 31 130 29 230
62 481 160 392 152 718 211 1000 181 230 -25 421 -76 699 -187 545 -217 859
-235 1202 -70 295 143 554 399 918 907 324 454 537 858 723 1369 l52 144 -131
69 c-221 115 -390 239 -563 414 -204 206 -365 453 -469 721 -151 390 -175 944
-59 1357 131 469 422 856 871 1158 51 34 92 65 93 68 1 16 -135 184 -219 272
-345 359 -775 569 -1346 657 -156 25 -375 32 -504 19z"/>
</g>
</svg>
