<?xml version="1.0" standalone="no"?>
<!DOCTYPE svg PUBLIC "-//W3C//DTD SVG 20010904//EN"
 "http://www.w3.org/TR/2001/REC-SVG-20010904/DTD/svg10.dtd">
<svg version="1.0" xmlns="http://www.w3.org/2000/svg"
 width="1200.000000pt" height="1200.000000pt" viewBox="0 0 1200.000000 1200.000000"
 preserveAspectRatio="xMidYMid meet">
<metadata>
Created by potrace 1.11, written by Peter Selinger 2001-2013
</metadata>
<g transform="translate(0.000000,1200.000000) scale(0.100000,-0.100000)"
fill="#000000" stroke="none">
<path d="M4396 11088 c-8 -18 -411 -991 -896 -2163 -485 -1172 -885 -2136
-887 -2143 -4 -10 497 -12 2498 -10 l2503 3 481 1160 c1142 2756 1315 3174
1315 3180 0 3 -1125 5 -2501 5 l-2500 0 -13 -32z m4402 -387 c-2 -10 -329
-806 -728 -1769 l-725 -1751 -2064 -1 c-1961 0 -2063 1 -2056 18 38 101 1450
3500 1457 3510 8 9 433 12 2065 12 1994 0 2054 -1 2051 -19z"/>
<path d="M4646 8985 c-245 -613 -446 -1120 -446 -1125 0 -7 472 -10 1394 -10
l1394 0 446 1115 c245 613 446 1120 446 1125 0 7 -472 10 -1394 10 l-1394 0
-446 -1115z"/>
<path d="M9349 10848 c-30 -73 -437 -1048 -904 -2165 l-849 -2033 -2493 0
-2493 0 0 -315 0 -315 2493 0 2494 0 12 28 c7 15 417 1047 912 2295 l899 2268
0 184 c0 102 -3 185 -8 185 -4 0 -32 -60 -63 -132z"/>
<path d="M5245 5838 c5 -22 124 -768 385 -2423 72 -451 133 -832 136 -846 5
-24 -35 -58 -575 -490 -319 -255 -580 -467 -580 -471 -1 -5 501 -8 1114 -8
l1115 0 423 377 c232 207 468 417 524 467 74 65 103 98 103 114 0 13 -25 177
-55 365 -86 542 -465 2928 -465 2933 0 2 -479 4 -1065 4 l-1065 0 5 -22z"/>
<path d="M7445 2029 c-242 -215 -479 -426 -527 -470 l-86 -79 -1116 0 -1116 0
0 -315 0 -315 1120 0 1120 0 497 553 c273 303 512 569 530 590 l33 37 0 195
c0 107 -3 195 -7 195 -5 0 -206 -176 -448 -391z"/>
</g>
</svg>
