<?xml version="1.0" standalone="no"?>
<!DOCTYPE svg PUBLIC "-//W3C//DTD SVG 20010904//EN"
 "http://www.w3.org/TR/2001/REC-SVG-20010904/DTD/svg10.dtd">
<svg version="1.0" xmlns="http://www.w3.org/2000/svg"
 width="1200.000000pt" height="1200.000000pt" viewBox="0 0 1200.000000 1200.000000"
 preserveAspectRatio="xMidYMid meet">
<metadata>
Created by potrace 1.11, written by Peter Selinger 2001-2013
</metadata>
<g transform="translate(0.000000,1200.000000) scale(0.100000,-0.100000)"
fill="#000000" stroke="none">
<path d="M2300 9344 c-228 -48 -421 -238 -480 -470 -20 -76 -20 -120 -20
-2144 0 -2024 0 -2068 20 -2144 46 -180 170 -335 330 -415 159 -78 -194 -71
3917 -69 l3688 3 73 27 c101 36 173 82 246 153 75 73 125 154 163 260 l28 80
0 2105 0 2105 -28 80 c-80 227 -247 378 -474 429 -66 15 -392 16 -3735 15
-3095 0 -3673 -3 -3728 -15z m7321 -467 c24 -13 58 -43 74 -66 l30 -43 0
-2038 0 -2038 -30 -43 c-16 -23 -50 -53 -74 -66 l-44 -23 -3541 0 c-3423 0
-3542 1 -3582 19 -49 22 -97 78 -113 130 -16 55 -16 3987 0 4042 16 52 64 108
113 130 40 18 159 19 3582 19 l3541 0 44 -23z"/>
<path d="M1651 3859 c-251 -29 -392 -124 -436 -294 -21 -81 -20 -293 1 -388
52 -228 207 -400 429 -475 l80 -27 4278 -3 c4767 -2 4348 -9 4507 69 121 60
231 170 288 289 58 123 67 171 67 355 -1 183 -14 246 -68 317 -72 95 -167 138
-342 158 -56 6 -646 10 -1561 10 l-1472 0 -7 -57 c-14 -120 -61 -177 -170
-205 -40 -10 -289 -13 -1225 -13 l-1175 0 -56 23 c-30 12 -67 34 -82 50 -33
34 -57 101 -57 158 l0 44 -1462 -1 c-805 -1 -1496 -5 -1537 -10z"/>
</g>
</svg>
