<?xml version="1.0" standalone="no"?>
<!DOCTYPE svg PUBLIC "-//W3C//DTD SVG 20010904//EN"
 "http://www.w3.org/TR/2001/REC-SVG-20010904/DTD/svg10.dtd">
<svg version="1.0" xmlns="http://www.w3.org/2000/svg"
 width="1200.000000pt" height="1200.000000pt" viewBox="0 0 1200.000000 1200.000000"
 preserveAspectRatio="xMidYMid meet">
<metadata>
Created by potrace 1.11, written by Peter Selinger 2001-2013
</metadata>
<g transform="translate(0.000000,1200.000000) scale(0.100000,-0.100000)"
fill="#000000" stroke="none">
<path d="M4300 10834 c-311 -30 -590 -174 -788 -404 -125 -146 -207 -306 -258
-505 l-29 -110 0 -3815 0 -3815 28 -109 c16 -59 44 -144 62 -188 168 -397 531
-669 960 -718 123 -14 3327 -14 3450 0 429 49 792 321 960 718 18 44 46 129
62 188 l28 109 0 3815 0 3815 -28 109 c-120 459 -439 775 -897 889 -85 21 -91
21 -1800 23 -943 0 -1731 0 -1750 -2z m3758 -4371 l2 -3043 -2060 0 -2060 0 0
3038 c0 1671 3 3042 7 3045 3 4 929 6 2057 5 l2051 -3 3 -3042z m-1943 -3538
c316 -66 514 -379 440 -694 -75 -316 -422 -510 -729 -407 -242 82 -395 293
-396 546 0 153 55 284 165 396 139 141 329 199 520 159z"/>
</g>
</svg>
