<?xml version="1.0" standalone="no"?>
<!DOCTYPE svg PUBLIC "-//W3C//DTD SVG 20010904//EN"
 "http://www.w3.org/TR/2001/REC-SVG-20010904/DTD/svg10.dtd">
<svg version="1.0" xmlns="http://www.w3.org/2000/svg"
 width="1200.000000pt" height="1200.000000pt" viewBox="0 0 1200.000000 1200.000000"
 preserveAspectRatio="xMidYMid meet">
<metadata>
Created by potrace 1.11, written by Peter Selinger 2001-2013
</metadata>
<g transform="translate(0.000000,1200.000000) scale(0.100000,-0.100000)"
fill="#000000" stroke="none">
<path d="M2420 11450 c-414 -88 -725 -420 -826 -880 -18 -82 -19 -237 -19
-4600 0 -3771 2 -4527 14 -4590 89 -489 458 -861 912 -920 60 -8 1128 -10
3669 -8 l3585 3 85 24 c202 57 352 144 491 288 160 164 255 343 305 573 18 82
19 232 19 4630 l0 4545 -29 110 c-112 433 -421 743 -821 826 -87 18 -213 19
-3695 18 -3446 0 -3609 -1 -3690 -19z m7305 -5300 l0 -4155 -3565 0 -3565 0
-3 4145 c-1 2280 0 4151 3 4158 3 10 722 12 3567 10 l3563 -3 0 -4155z m-3654
-4580 c128 -24 237 -108 296 -228 25 -51 28 -67 28 -162 0 -97 -2 -110 -32
-172 -39 -84 -109 -155 -188 -194 -55 -27 -69 -29 -170 -29 -98 0 -116 3 -167
27 -162 76 -259 258 -230 428 29 161 147 287 307 326 64 16 90 16 156 4z"/>
</g>
</svg>
